<svg xmlns="http://www.w3.org/2000/svg" xml:space="preserve" width="800" height="800" data-version="2">
    <rect width="100%" height="100%" fill="#fff"/>
    <path d="M69.31 416.74 29.04 310.59h-.66q.33 3.36.57 8.2.25 4.84.41 10.54.17 5.7.17 11.61v75.8H16.57V296.81h20.67l37.98 99.75h.57l38.56-99.75h20.51v119.93h-13.79v-76.79q0-5.33.17-10.7.16-5.37.41-10.17.24-4.8.49-8.33h-.66L80.71 416.74Z"/>
    <rect width="118.29" height="119.93" x="-59.145" y="-59.965" fill="none" rx="0" ry="0" transform="matrix(1 0 0 1 76.215 357.275)"/>
    <path d="M200.23 325.19q11.49 0 19.69 5.08 8.2 5.09 12.55 14.24 4.35 9.14 4.35 21.37v8.45h-62.1q.25 15.83 7.88 24.11 7.63 8.29 21.49 8.29 8.53 0 15.09-1.56 6.57-1.56 13.62-4.59v11.97q-6.81 3.04-13.49 4.43-6.69 1.4-15.79 1.4-12.97 0-22.6-5.29-9.64-5.3-14.97-15.55-5.34-10.25-5.34-25.1 0-14.52 4.88-25.14 4.88-10.63 13.79-16.37 8.9-5.74 20.95-5.74m-.16 11.15q-10.91 0-17.39 7.14t-7.71 19.94h47.58q-.09-8.04-2.51-14.16-2.42-6.11-7.34-9.51-4.92-3.41-12.63-3.41"/>
    <rect width="76.21" height="93.19" x="-38.105" y="-46.595" fill="none" rx="0" ry="0" transform="matrix(1 0 0 1 199.215 372.285)"/>
    <path d="M291.95 418.38q-17.07 0-27.03-11.65-9.97-11.65-9.97-34.62 0-23.21 10.17-35.07 10.17-11.85 27.07-11.85 7.14 0 12.47 1.89 5.33 1.88 9.19 5.04 3.85 3.16 6.48 7.18h.98q-.33-2.54-.65-6.97-.33-4.43-.33-7.22v-36.02h13.62v127.65h-11l-2.05-12.8h-.57q-2.54 4.02-6.44 7.3-3.9 3.28-9.27 5.21-5.37 1.93-12.67 1.93m2.13-11.32q14.44 0 20.42-8.21 5.99-8.2 5.99-24.36v-2.46q0-17.15-5.7-26.33-5.7-9.19-20.71-9.19-12.55 0-18.79 9.64-6.23 9.64-6.23 26.29 0 16.57 6.19 25.59 6.2 9.03 18.83 9.03"/>
    <rect width="79" height="129.29" x="-39.5" y="-64.645" fill="none" rx="0" ry="0" transform="matrix(1 0 0 1 294.95 354.235)"/>
    <path d="M376.36 326.83v89.91h-13.62v-89.91Zm-6.65-33.63q3.36 0 5.78 2.17 2.42 2.17 2.42 6.77 0 4.51-2.42 6.72-2.42 2.22-5.78 2.22-3.53 0-5.86-2.22-2.34-2.21-2.34-6.72 0-4.6 2.34-6.77 2.33-2.17 5.86-2.17"/>
    <rect width="16.4" height="123.54" x="-8.2" y="-61.77" fill="none" rx="0" ry="0" transform="matrix(1 0 0 1 370.21 355.47)"/>
    <path d="M441.16 418.38q-12.14 0-21.41-5.01-9.27-5-14.44-15.26-5.17-10.25-5.17-25.84 0-16.32 5.46-26.7 5.45-10.37 15.05-15.38 9.6-5 21.82-5 6.73 0 13 1.35 6.28 1.36 10.3 3.41l-4.1 11.4q-4.1-1.64-9.48-2.95-5.37-1.32-10.05-1.32-9.35 0-15.54 4.02-6.19 4.02-9.27 11.82-3.08 7.79-3.08 19.19 0 10.91 3 18.62 2.99 7.71 8.94 11.77 5.95 4.06 14.89 4.06 7.13 0 12.88-1.51 5.74-1.52 10.41-3.57v12.14q-4.51 2.3-10.04 3.53-5.54 1.23-13.17 1.23"/>
    <rect width="65.63" height="93.19" x="-32.815" y="-46.595" fill="none" rx="0" ry="0" transform="matrix(1 0 0 1 433.455 372.285)"/>
    <path d="M558.14 416.74h-78.59v-11.41l32.07-32.56q8.95-9.03 15.06-16.08 6.11-7.06 9.31-13.91 3.2-6.85 3.2-15.05 0-10.17-6.03-15.54-6.03-5.38-15.87-5.38-8.62 0-15.26 2.96-6.65 2.95-13.62 8.36l-7.3-9.18q4.76-4.02 10.38-7.14 5.62-3.12 12.05-4.92 6.44-1.81 13.75-1.81 11.07 0 19.11 3.86 8.04 3.85 12.43 10.99 4.38 7.14 4.38 16.98 0 9.52-3.77 17.68t-10.58 16.16q-6.81 8-15.91 16.94l-26.09 26v.58h61.28Z"/>
    <rect width="78.59" height="121.66" x="-39.295" y="-60.83" fill="none" rx="0" ry="0" transform="matrix(1 0 0 1 519.345 356.41)"/>
    <path d="M660.18 388.93h-17.96v27.81h-13.29v-27.81h-58v-11.49l57.1-81.29h14.19v80.47h17.96Zm-31.25-12.31v-39.21q0-4.51.08-8.16.08-3.65.25-6.81.16-3.16.28-6.03.13-2.87.21-5.66h-.66q-1.55 3.28-3.56 6.93t-4.07 6.52l-36.99 52.42Z"/>
    <rect width="89.25" height="120.59" x="-44.625" y="-60.295" fill="none" rx="0" ry="0" transform="matrix(1 0 0 1 616.055 356.945)"/>
    <path d="M711.37 325.35q16.08 0 23.87 7.22 7.8 7.22 7.8 23.05v61.12h-9.93l-2.63-13.29h-.65q-3.78 4.92-7.88 8.24-4.1 3.32-9.47 5-5.37 1.69-13.17 1.69-8.2 0-14.56-2.87-6.36-2.88-10.01-8.7-3.65-5.82-3.65-14.77 0-13.45 10.67-20.67 10.66-7.22 32.48-7.87l15.51-.66v-5.5q0-11.64-5.01-16.32-5-4.68-14.11-4.68-7.05 0-13.45 2.06-6.4 2.05-12.14 4.84l-4.18-10.34q6.07-3.12 13.94-5.33 7.88-2.22 16.57-2.22m18.21 47.09-13.7.57q-16.81.66-23.7 5.5-6.89 4.84-6.89 13.7 0 7.71 4.67 11.4 4.68 3.69 12.39 3.69 11.97 0 19.6-6.64 7.63-6.65 7.63-19.94Z"/>
    <rect width="71.95" height="93.03" x="-35.975" y="-46.515" fill="none" rx="0" ry="0" transform="matrix(1 0 0 1 707.565 372.365)"/>
    <path d="M784.71 326.83v89.91h-13.62v-89.91Zm-6.65-33.63q3.37 0 5.79 2.17t2.42 6.77q0 4.51-2.42 6.72-2.42 2.22-5.79 2.22-3.52 0-5.86-2.22-2.34-2.21-2.34-6.72 0-4.6 2.34-6.77t5.86-2.17"/>
    <rect width="16.41" height="123.54" x="-8.205" y="-61.77" fill="none" rx="0" ry="0" transform="matrix(1 0 0 1 778.565 355.47)"/>
    <path d="M139.6 520.69h-2.9v-11.78h-13.13v11.78h-2.9V495.7h2.9v10.65h13.13V495.7h2.9Z"/>
    <rect width="18.93" height="24.99" x="-9.465" y="-12.495" fill="none" rx="0" ry="0" transform="matrix(1 0 0 1 130.635 508.695)"/>
    <path d="M153.26 501.62q2.39 0 4.1 1.06 1.71 1.06 2.61 2.96.91 1.91.91 4.45v1.76h-12.94q.05 3.3 1.64 5.03 1.59 1.72 4.48 1.72 1.78 0 3.14-.32 1.37-.32 2.84-.96v2.5q-1.42.63-2.81.92-1.39.29-3.29.29-2.7 0-4.71-1.1t-3.12-3.24q-1.11-2.14-1.11-5.23 0-3.02 1.02-5.24 1.02-2.21 2.87-3.41 1.85-1.19 4.37-1.19m-.04 2.32q-2.27 0-3.62 1.49t-1.61 4.15h9.92q-.02-1.67-.53-2.95-.5-1.27-1.53-1.98-1.02-.71-2.63-.71"/>
    <rect width="15.88" height="19.41" x="-7.94" y="-9.705" fill="none" rx="0" ry="0" transform="matrix(1 0 0 1 153.44 511.825)"/>
    <path d="M172.7 501.65q3.35 0 4.98 1.51 1.62 1.5 1.62 4.8v12.73h-2.07l-.54-2.77h-.14q-.79 1.03-1.64 1.72-.86.69-1.97 1.04-1.12.35-2.75.35-1.71 0-3.03-.6-1.33-.59-2.09-1.81-.76-1.21-.76-3.07 0-2.81 2.23-4.31 2.22-1.5 6.76-1.64l3.23-.14v-1.14q0-2.43-1.04-3.4-1.04-.98-2.94-.98-1.47 0-2.8.43-1.33.43-2.53 1.01l-.87-2.16q1.26-.65 2.9-1.11 1.64-.46 3.45-.46m3.8 9.81-2.86.12q-3.5.14-4.93 1.15-1.44 1-1.44 2.85 0 1.61.97 2.38.98.76 2.58.76 2.5 0 4.09-1.38 1.59-1.38 1.59-4.15Z"/>
    <rect width="14.99" height="19.38" x="-7.495" y="-9.69" fill="none" rx="0" ry="0" transform="matrix(1 0 0 1 172.305 511.84)"/>
    <path d="M188 520.69h-2.85V494.1H188Z"/>
    <rect width="2.85" height="26.59" x="-1.425" y="-13.295" fill="none" rx="0" ry="0" transform="matrix(1 0 0 1 187.075 507.895)"/>
    <path d="M200.03 518.71q.7 0 1.44-.12.73-.12 1.19-.29v2.2q-.49.22-1.37.38-.88.15-1.72.15-1.49 0-2.7-.52-1.21-.52-1.94-1.77t-.73-3.45v-11.11h-2.66v-1.38l2.68-1.11 1.13-4.07h1.71v4.34h5.48v2.22h-5.48v11.02q0 1.76.81 2.64.81.87 2.16.87"/>
    <rect width="11.12" height="23.41" x="-5.56" y="-11.705" fill="none" rx="0" ry="0" transform="matrix(1 0 0 1 197.6 509.825)"/>
    <path d="M209.29 494.1v7.94q0 .69-.03 1.38t-.12 1.27h.19q.58-.99 1.48-1.66.89-.68 2.04-1.03 1.14-.35 2.43-.35 2.25 0 3.76.72 1.52.72 2.28 2.22.76 1.51.76 3.9v12.2h-2.81v-12.01q0-2.35-1.06-3.51-1.07-1.16-3.28-1.16-2.08 0-3.32.79-1.24.8-1.78 2.34-.54 1.54-.54 3.76v9.79h-2.83V494.1Z"/>
    <rect width="15.62" height="26.59" x="-7.81" y="-13.295" fill="none" rx="0" ry="0" transform="matrix(1 0 0 1 214.77 507.895)"/>
    <path d="M235.42 521.03q-2.52 0-4.46-1.04-1.93-1.04-3-3.18-1.08-2.14-1.08-5.38 0-3.4 1.14-5.57 1.13-2.16 3.13-3.2t4.55-1.04q1.4 0 2.71.28 1.3.28 2.14.71l-.85 2.37q-.86-.34-1.98-.61-1.12-.27-2.09-.27-1.95 0-3.24.83-1.29.84-1.93 2.46-.64 1.63-.64 4 0 2.28.62 3.88.63 1.61 1.87 2.45 1.23.85 3.1.85 1.48 0 2.68-.32 1.2-.31 2.17-.74v2.53q-.94.48-2.09.74-1.16.25-2.75.25"/>
    <rect width="13.67" height="19.41" x="-6.835" y="-9.705" fill="none" rx="0" ry="0" transform="matrix(1 0 0 1 234.215 511.825)"/>
    <path d="M251.69 501.65q3.35 0 4.98 1.51 1.62 1.5 1.62 4.8v12.73h-2.07l-.54-2.77h-.14q-.79 1.03-1.64 1.72-.86.69-1.98 1.04-1.11.35-2.74.35-1.71 0-3.03-.6-1.33-.59-2.09-1.81-.76-1.21-.76-3.07 0-2.81 2.22-4.31 2.23-1.5 6.77-1.64l3.23-.14v-1.14q0-2.43-1.04-3.4-1.04-.98-2.94-.98-1.47 0-2.8.43-1.34.43-2.53 1.01l-.87-2.16q1.26-.65 2.9-1.11 1.64-.46 3.45-.46m3.8 9.81-2.86.12q-3.5.14-4.93 1.15-1.44 1-1.44 2.85 0 1.61.97 2.38.98.76 2.58.76 2.5 0 4.09-1.38 1.59-1.38 1.59-4.15Z"/>
    <rect width="14.99" height="19.38" x="-7.495" y="-9.69" fill="none" rx="0" ry="0" transform="matrix(1 0 0 1 251.295 511.84)"/>
    <path d="M272.65 501.62q.56 0 1.18.06.61.06 1.09.16l-.36 2.63q-.46-.12-1.03-.19-.56-.06-1.05-.06-1.13 0-2.13.45t-1.75 1.3q-.76.84-1.18 2.03-.43 1.19-.43 2.64v10.05h-2.85v-18.73h2.35l.31 3.45h.12q.58-1.04 1.4-1.9.82-.87 1.91-1.38 1.08-.51 2.42-.51"/>
    <rect width="10.78" height="19.07" x="-5.39" y="-9.535" fill="none" rx="0" ry="0" transform="matrix(1 0 0 1 270.03 511.655)"/>
    <path d="M285.65 501.62q2.39 0 4.1 1.06 1.71 1.06 2.62 2.96.9 1.91.9 4.45v1.76h-12.93q.05 3.3 1.64 5.03 1.59 1.72 4.47 1.72 1.78 0 3.15-.32 1.37-.32 2.84-.96v2.5q-1.42.63-2.82.92-1.39.29-3.28.29-2.7 0-4.71-1.1t-3.12-3.24q-1.11-2.14-1.11-5.23 0-3.02 1.01-5.24 1.02-2.21 2.88-3.41 1.85-1.19 4.36-1.19m-.03 2.32q-2.28 0-3.63 1.49t-1.6 4.15h9.91q-.02-1.67-.52-2.95-.51-1.27-1.53-1.98-1.03-.71-2.63-.71"/>
    <rect width="15.87" height="19.41" x="-7.935" y="-9.705" fill="none" rx="0" ry="0" transform="matrix(1 0 0 1 285.835 511.825)"/>
    <path d="M314.19 501.65q3.35 0 4.97 1.51 1.63 1.5 1.63 4.8v12.73h-2.07l-.55-2.77h-.13q-.79 1.03-1.64 1.72-.86.69-1.98 1.04-1.12.35-2.74.35-1.71 0-3.03-.6-1.33-.59-2.09-1.81-.76-1.21-.76-3.07 0-2.81 2.22-4.31 2.22-1.5 6.77-1.64l3.23-.14v-1.14q0-2.43-1.04-3.4-1.05-.98-2.94-.98-1.47 0-2.8.43-1.34.43-2.53 1.01l-.88-2.16q1.27-.65 2.91-1.11 1.64-.46 3.45-.46m3.8 9.81-2.86.12q-3.5.14-4.94 1.15-1.43 1-1.43 2.85 0 1.61.97 2.38.98.76 2.58.76 2.5 0 4.09-1.38 1.59-1.38 1.59-4.15Z"/>
    <rect width="14.99" height="19.38" x="-7.495" y="-9.69" fill="none" rx="0" ry="0" transform="matrix(1 0 0 1 313.795 511.84)"/>
    <path d="M332.68 518.71q.7 0 1.44-.12.73-.12 1.19-.29v2.2q-.49.22-1.37.38-.88.15-1.72.15-1.49 0-2.7-.52-1.21-.52-1.94-1.77-.72-1.25-.72-3.45v-11.11h-2.67v-1.38l2.68-1.11 1.13-4.07h1.71v4.34h5.49v2.22h-5.49v11.02q0 1.76.81 2.64.81.87 2.16.87"/>
    <rect width="11.12" height="23.41" x="-5.56" y="-11.705" fill="none" rx="0" ry="0" transform="matrix(1 0 0 1 330.25 509.825)"/>
    <path d="m355 508.23 6.65-12.53h3.13l-8.33 15.3v9.69h-2.9v-9.55l-8.34-15.44h3.18Z"/>
    <rect width="19.57" height="24.99" x="-9.785" y="-12.495" fill="none" rx="0" ry="0" transform="matrix(1 0 0 1 355.495 508.695)"/>
    <path d="M383.92 511.29q0 2.31-.6 4.12t-1.73 3.06q-1.12 1.25-2.72 1.9-1.6.66-3.62.66-1.88 0-3.44-.66-1.56-.65-2.7-1.9-1.14-1.25-1.76-3.06-.62-1.81-.62-4.12 0-3.08 1.04-5.24t2.98-3.3q1.94-1.13 4.62-1.13 2.57 0 4.49 1.14 1.92 1.15 2.99 3.31 1.07 2.16 1.07 5.22m-14.25 0q0 2.26.59 3.91.6 1.66 1.85 2.57 1.25.9 3.21.9 1.95 0 3.21-.9 1.25-.91 1.85-2.57.6-1.65.6-3.91 0-2.24-.6-3.87t-1.85-2.52q-1.24-.89-3.23-.89-2.92 0-4.28 1.93-1.35 1.93-1.35 5.35"/>
    <rect width="17.19" height="19.41" x="-8.595" y="-9.705" fill="none" rx="0" ry="0" transform="matrix(1 0 0 1 375.825 511.825)"/>
    <path d="M404.29 501.96v18.73h-2.32l-.42-2.63h-.15q-.58.97-1.5 1.64-.93.67-2.08 1-1.15.33-2.45.33-2.22 0-3.73-.72-1.5-.71-2.26-2.22-.76-1.5-.76-3.86v-12.27h2.87v12.06q0 2.35 1.06 3.5t3.23 1.15q2.08 0 3.32-.78 1.24-.79 1.79-2.32.55-1.53.55-3.75v-9.86Z"/>
    <rect width="15.67" height="19.07" x="-7.835" y="-9.535" fill="none" rx="0" ry="0" transform="matrix(1 0 0 1 396.955 511.995)"/>
    <path d="M418.8 501.62q.56 0 1.18.06.61.06 1.09.16l-.36 2.63q-.46-.12-1.02-.19-.57-.06-1.06-.06-1.13 0-2.13.45t-1.75 1.3q-.75.84-1.18 2.03-.43 1.19-.43 2.64v10.05h-2.85v-18.73h2.36l.3 3.45h.12q.58-1.04 1.4-1.9.83-.87 1.91-1.38 1.09-.51 2.42-.51"/>
    <rect width="10.78" height="19.07" x="-5.39" y="-9.535" fill="none" rx="0" ry="0" transform="matrix(1 0 0 1 416.18 511.655)"/>
    <path d="M437.02 520.69h-2.91V495.7h13.91v2.57h-11v9.16h10.34v2.54h-10.34Z"/>
    <rect width="13.91" height="24.99" x="-6.955" y="-12.495" fill="none" rx="0" ry="0" transform="matrix(1 0 0 1 441.565 508.695)"/>
    <path d="M454.58 501.96v18.73h-2.83v-18.73Zm-1.38-7.01q.7 0 1.21.46.5.45.5 1.41 0 .94-.5 1.4-.51.46-1.21.46-.73 0-1.22-.46t-.49-1.4q0-.96.49-1.41.49-.46 1.22-.46"/>
    <rect width="3.42" height="25.74" x="-1.71" y="-12.87" fill="none" rx="0" ry="0" transform="matrix(1 0 0 1 453.7 508.32)"/>
    <path d="M469.45 501.62q3.34 0 5.04 1.63 1.71 1.63 1.71 5.24v12.2h-2.8v-12.01q0-2.35-1.07-3.51-1.07-1.16-3.27-1.16-3.11 0-4.38 1.76-1.26 1.76-1.26 5.11v9.81h-2.84v-18.73h2.29l.43 2.7h.15q.6-.99 1.53-1.67.92-.67 2.06-1.02 1.15-.35 2.41-.35"/>
    <rect width="15.62" height="19.07" x="-7.81" y="-9.535" fill="none" rx="0" ry="0" transform="matrix(1 0 0 1 468.89 511.655)"/>
    <path d="M487.28 529.1q-3.69 0-5.69-1.38-2-1.37-2-3.85 0-1.76 1.12-3.01 1.12-1.25 3.1-1.66-.74-.34-1.26-1.02-.52-.69-.52-1.57 0-1.03.57-1.81.58-.78 1.76-1.49-1.47-.6-2.39-2.03-.91-1.43-.91-3.32 0-2.02.83-3.45.84-1.42 2.43-2.17 1.59-.76 3.85-.76.49 0 1 .05.5.04.96.12.46.07.8.18h6.43v1.82l-3.45.43q.51.67.85 1.61.34.94.34 2.08 0 2.81-1.89 4.45-1.9 1.65-5.21 1.65-.79 0-1.61-.13-.84.46-1.27 1.02-.44.57-.44 1.3 0 .55.33.87.34.33.97.47.63.15 1.52.15h3.3q3.06 0 4.69 1.28 1.63 1.28 1.63 3.74 0 3.11-2.53 4.77-2.53 1.66-7.31 1.66m.08-2.22q2.33 0 3.86-.47 1.53-.47 2.29-1.35.76-.88.76-2.1 0-1.13-.52-1.7-.51-.57-1.5-.77-.99-.19-2.43-.19h-3.24q-1.27 0-2.21.39t-1.44 1.16q-.51.77-.51 1.92 0 1.52 1.29 2.31 1.28.8 3.65.8m.74-14.97q2.03 0 3.06-1.03 1.02-1.03 1.02-2.99 0-2.1-1.04-3.15-1.04-1.05-3.08-1.05-1.94 0-3 1.08-1.05 1.09-1.05 3.17 0 1.91 1.06 2.94t3.03 1.03"/>
    <rect width="17.77" height="27.52" x="-8.885" y="-13.76" fill="none" rx="0" ry="0" transform="matrix(1 0 0 1 488.975 515.84)"/>
    <path d="M508.26 501.62q2.4 0 4.11 1.06 1.7 1.06 2.61 2.96.91 1.91.91 4.45v1.76h-12.94q.05 3.3 1.64 5.03 1.59 1.72 4.48 1.72 1.77 0 3.14-.32t2.84-.96v2.5q-1.42.63-2.81.92-1.4.29-3.29.29-2.7 0-4.71-1.1t-3.12-3.24q-1.11-2.14-1.11-5.23 0-3.02 1.02-5.24 1.01-2.21 2.87-3.41 1.85-1.19 4.36-1.19m-.03 2.32q-2.27 0-3.62 1.49t-1.61 4.15h9.91q-.01-1.67-.52-2.95-.5-1.27-1.53-1.98-1.02-.71-2.63-.71"/>
    <rect width="15.88" height="19.41" x="-7.94" y="-9.705" fill="none" rx="0" ry="0" transform="matrix(1 0 0 1 508.45 511.825)"/>
    <path d="M529.22 501.62q.56 0 1.18.06.61.06 1.09.16l-.36 2.63q-.46-.12-1.03-.19-.56-.06-1.05-.06-1.13 0-2.13.45t-1.75 1.3q-.76.84-1.18 2.03-.43 1.19-.43 2.64v10.05h-2.85v-18.73h2.35l.31 3.45h.12q.58-1.04 1.4-1.9.82-.87 1.91-1.38 1.08-.51 2.42-.51"/>
    <rect width="10.78" height="19.07" x="-5.39" y="-9.535" fill="none" rx="0" ry="0" transform="matrix(1 0 0 1 526.6 511.655)"/>
    <path d="M541.06 518.71q.7 0 1.43-.12.74-.12 1.2-.29v2.2q-.49.22-1.37.38-.88.15-1.72.15-1.49 0-2.7-.52-1.22-.52-1.94-1.77-.73-1.25-.73-3.45v-11.11h-2.66v-1.38l2.68-1.11 1.13-4.07h1.71v4.34h5.48v2.22h-5.48v11.02q0 1.76.81 2.64.81.87 2.16.87"/>
    <rect width="11.12" height="23.41" x="-5.56" y="-11.705" fill="none" rx="0" ry="0" transform="matrix(1 0 0 1 538.63 509.825)"/>
    <path d="M550.32 501.96v18.73h-2.83v-18.73Zm-1.38-7.01q.7 0 1.2.46.51.45.51 1.41 0 .94-.51 1.4-.5.46-1.2.46-.74 0-1.22-.46-.49-.46-.49-1.4 0-.96.49-1.41.48-.46 1.22-.46"/>
    <rect width="3.42" height="25.74" x="-1.71" y="-12.87" fill="none" rx="0" ry="0" transform="matrix(1 0 0 1 549.44 508.32)"/>
    <path d="M565.12 501.62q3.51 0 5.59 2.41 2.09 2.41 2.09 7.24 0 3.2-.96 5.37t-2.69 3.28q-1.74 1.11-4.1 1.11-1.48 0-2.61-.39t-1.93-1.06q-.81-.67-1.34-1.45h-.2q.05.66.13 1.6.07.94.07 1.64v7.69h-2.85v-27.1h2.34l.38 2.77h.13q.55-.86 1.34-1.57.78-.7 1.92-1.12 1.14-.42 2.69-.42m-.49 2.39q-1.95 0-3.14.75-1.19.75-1.73 2.25-.55 1.49-.59 3.75v.55q0 2.37.53 4.01.52 1.64 1.72 2.5 1.21.85 3.24.85 1.74 0 2.91-.94 1.16-.94 1.73-2.62.57-1.68.57-3.87 0-3.32-1.29-5.27-1.29-1.96-3.95-1.96"/>
    <rect width="16.48" height="27.44" x="-8.24" y="-13.72" fill="none" rx="0" ry="0" transform="matrix(1 0 0 1 565.06 515.84)"/>
    <path d="M589.85 515.56q0 1.8-.9 3.02-.89 1.22-2.56 1.84-1.67.61-3.97.61-1.97 0-3.4-.31-1.44-.3-2.52-.87v-2.61q1.15.56 2.74 1.02 1.59.46 3.25.46 2.42 0 3.52-.78 1.09-.79 1.09-2.14 0-.77-.44-1.36-.43-.59-1.46-1.14-1.02-.56-2.83-1.22-1.8-.69-3.11-1.36-1.3-.68-2.01-1.65-.71-.98-.71-2.53 0-2.38 1.92-3.65t5.05-1.27q1.69 0 3.17.33t2.76.9l-.96 2.27q-1.16-.49-2.47-.84-1.32-.34-2.69-.34-1.96 0-3.01.65-1.05.65-1.05 1.78 0 .87.48 1.43.49.57 1.57 1.06 1.07.5 2.83 1.17 1.76.65 3.04 1.34 1.29.69 1.98 1.67t.69 2.52"/>
    <rect width="13.35" height="19.41" x="-6.675" y="-9.705" fill="none" rx="0" ry="0" transform="matrix(1 0 0 1 583.675 511.825)"/>
    <path d="M593.99 518.91q0-1.19.58-1.7.58-.5 1.42-.5.87 0 1.47.5.59.51.59 1.7 0 1.18-.59 1.72-.6.54-1.47.54-.84 0-1.42-.54t-.58-1.72"/>
    <rect width="4.06" height="4.46" x="-2.03" y="-2.23" fill="none" rx="0" ry="0" transform="matrix(1 0 0 1 596.52 519.44)"/>
    <path d="M627.81 520.69h-16.37v-2.38l6.68-6.78q1.86-1.88 3.13-3.35 1.28-1.47 1.94-2.9.67-1.42.67-3.13 0-2.12-1.26-3.24-1.25-1.12-3.3-1.12-1.8 0-3.18.61-1.39.62-2.84 1.75l-1.52-1.92q.99-.83 2.16-1.48 1.17-.65 2.51-1.03 1.35-.37 2.87-.37 2.3 0 3.98.8 1.67.8 2.59 2.29.91 1.49.91 3.54 0 1.98-.78 3.68-.79 1.7-2.21 3.37-1.42 1.66-3.31 3.53l-5.44 5.41v.12h12.77Z"/>
    <rect width="16.37" height="25.34" x="-8.185" y="-12.67" fill="none" rx="0" ry="0" transform="matrix(1 0 0 1 620.125 508.52)"/>
    <path d="M649.07 514.9h-3.75v5.79h-2.76v-5.79h-12.09v-2.4l11.9-16.93h2.95v16.76h3.75Zm-6.51-2.57v-8.17q0-.94.01-1.7.02-.76.05-1.41.04-.66.06-1.26.03-.6.05-1.18h-.14q-.32.68-.74 1.44-.42.76-.85 1.36l-7.71 10.92Z"/>
    <rect width="18.6" height="25.12" x="-9.3" y="-12.56" fill="none" rx="0" ry="0" transform="matrix(1 0 0 1 640.27 508.63)"/>
    <path d="m662.19 495.7-9.29 24.99h-2.81l9.32-24.99Z"/>
    <rect width="12.1" height="24.99" x="-6.05" y="-12.495" fill="none" rx="0" ry="0" transform="matrix(1 0 0 1 656.64 508.695)"/>
    <path d="m667.52 520.69 10.26-22.39h-13.62v-2.6h16.66v2.19l-10.19 22.8Z"/>
    <rect width="16.66" height="24.99" x="-8.33" y="-12.495" fill="none" rx="0" ry="0" transform="matrix(1 0 0 1 672.99 508.695)"/>
</svg>
