<svg xmlns="http://www.w3.org/2000/svg" xml:space="preserve" width="800" height="800" data-version="2">
    <rect width="100%" height="100%" fill="#fff"/>
    <circle r="50" fill="none" stroke="#000" stroke-width="2" paint-order="stroke" transform="matrix(7.84 0 0 7.84 399.84 399.84)"/>
    <path d="M383.38 555.61 279.57 282.02h-1.69q.85 8.67 1.48 21.15.63 12.47 1.06 27.16.42 14.7.42 29.92v195.36h-33.41V246.5h53.28l97.89 257.1h1.48l99.37-257.1h52.86v309.11h-35.52v-197.9q0-13.74.42-27.59.43-13.85 1.06-26.21.64-12.37 1.27-21.46h-1.69L412.77 555.61Z"/>
    <rect width="304.88" height="309.11" x="-152.44" y="-154.555" fill="none" rx="0" ry="0" transform="matrix(1 0 0 1 400.37 401.555)"/>
</svg>
